<svg width="36" height="36" fill="none" xmlns="http://www.w3.org/2000/svg"><path d="M2 10h32v20H2V10z" fill="#EDEEF9"/><path fill-rule="evenodd" clip-rule="evenodd" d="M36 6c0-1.1-.9-2-2-2H2C.9 4 0 4.9 0 6v24c0 1.1.9 2 2 2h32c1.1 0 2-.9 2-2V6zM2 10h32v20H2V10zm1-4c-.6 0-1 .4-1 1s.4 1 1 1 1-.4 1-1-.4-1-1-1zm2 1c0-.6.4-1 1-1s1 .4 1 1-.4 1-1 1-1-.4-1-1zm4-1c-.6 0-1 .4-1 1s.4 1 1 1 1-.4 1-1-.4-1-1-1zm10.9 10.3l-2 8c-.1.5-.6.8-1 .7h-.2c-.5-.1-.8-.7-.7-1.2l2-8c.1-.5.7-.8 1.2-.7.5.1.8.7.7 1.2zm-6.1 6.3c.3-.5.2-1.1-.3-1.4L11.8 20l1.8-1.2c.5-.3.6-.9.3-1.4-.3-.5-.9-.6-1.4-.3l-3 2c-.3.3-.5.6-.5.9 0 .3.2.6.4.8l3 2c.2.1.4.2.6.2.3 0 .6-.2.8-.4zm12.8-1.9l-3 2-.6.3c-.3 0-.6-.1-.8-.4-.3-.5-.2-1.1.3-1.4l1.8-1.2-1.8-1.2c-.5-.3-.6-.9-.3-1.4.3-.5.9-.6 1.4-.3l3 2c.2.2.4.5.4.8 0 .3-.1.6-.4.8z" fill="#7879B2"/></svg>