<svg width="36" height="36" fill="none" xmlns="http://www.w3.org/2000/svg"><path fill-rule="evenodd" clip-rule="evenodd" d="M23 4c0-.6-.4-1-1-1h-8c-.6 0-1 .4-1 1v4c0 .6.4 1 1 1h8c.6 0 1-.4 1-1V4zm-.2 11.6l-1.5-4.8h-6.7l-1.5 4.8c-.1.2-.1.5 0 .7l4.4 9.5c0 .1.1.2.2.2.3.2.6.1.7-.2l4.4-9.5c.1-.2.1-.5 0-.7z" fill="#EDEEF9"/><path fill-rule="evenodd" clip-rule="evenodd" d="M25 4c0-1.7-1.3-3-3-3h-8c-1.7 0-3 1.3-3 3v4c0 1.2.7 2.2 1.7 2.7l-1.5 4.6c-.2.5-.1 1 .1 1.5L16.7 28c.1.3.4.6.7.7.7.4 1.6 0 2-.7l5.3-11.2c.2-.5.3-1 .1-1.5l-1.5-4.6c1-.5 1.7-1.5 1.7-2.7V4zM3 35c1.3 0 2.4-.8 2.8-2h24.4c.4 1.2 1.5 2 2.8 2 1.7 0 3-1.3 3-3s-1.3-3-3-3c-1.3 0-2.4.8-2.8 2h-4.4c4.7-2.6 7.9-7.5 8.2-13.2 1.2-.4 2-1.5 2-2.8 0-1.7-1.3-3-3-3s-3 1.3-3 3c0 1.3.8 2.4 2 2.8-.4 7.4-6.5 13.2-14 13.2S4.4 25.2 4 17.8c1.2-.4 2-1.5 2-2.8 0-1.7-1.3-3-3-3s-3 1.3-3 3c0 1.3.8 2.4 2 2.8.3 5.7 3.6 10.6 8.2 13.2H5.8c-.4-1.2-1.5-2-2.8-2-1.7 0-3 1.3-3 3s1.3 3 3 3zm18.3-24h-6.6l-1.6 4.9 4 8.2v-6.4c-.6-.3-.9-.9-1-1.6V16c0-1.1.9-2 2-2s2 .9 2 2c0 .8-.4 1.4-1 1.8v6.4L23 16l-1.7-5zM14 3h8c.6 0 1 .4 1 1v4c0 .6-.4 1-1 1h-8c-.6 0-1-.4-1-1V4c0-.6.4-1 1-1z" fill="#7879B2"/></svg>