<svg width="36" height="36" fill="none" xmlns="http://www.w3.org/2000/svg"><g clip-path="url(#clip0)"><path fill-rule="evenodd" clip-rule="evenodd" d="M14 2a2 2 0 012-2h16a2 2 0 012 2v32a2 2 0 01-2 2H16a2 2 0 01-2-2V2zm6 .5a.5.5 0 01.5-.5h7a.5.5 0 010 1h-7a.5.5 0 01-.5-.5zM24 34a1 1 0 100-2 1 1 0 000 2z" fill="#7879B2"/><path fill="#EDEEF9" d="M16 5h16v25H16z"/><path d="M12.876 28h0c.932 0 1.77-.632 1.981-1.565 0 0 0 0 0 0l.317-1.398c.155-.076.308-.157.459-.241h0c.142-.08.28-.164.417-.25l1.438.444h0a2.045 2.045 0 002.36-.898h0l1.875-3.153.003-.004a1.985 1.985 0 00-.395-2.492l-.003-.003-1.094-.968a8.84 8.84 0 000-.938l1.094-.968.003-.003c.707-.63.88-1.668.395-2.492l-.003-.004-1.876-3.153h0a2.045 2.045 0 00-2.359-.898h0l-1.438.444a9.329 9.329 0 00-.877-.492l-.315-1.4s0 0 0 0v-.001A2.024 2.024 0 0012.877 6H9.124h0c-.933 0-1.771.634-1.981 1.568h0L6.83 8.965c-.14.068-.279.14-.415.214h0l-.01.005a9.375 9.375 0 00-.458.275l-1.434-.443s0 0 0 0 0 0 0 0a2.045 2.045 0 00-2.361.897L.277 13.065h0l-.002.004a1.984 1.984 0 00.395 2.494l.004.003 1.093.965a8.856 8.856 0 000 .937l-1.094.968h0l-.003.003a1.985 1.985 0 00-.395 2.492h0l.003.005 1.879 3.15s0 0 0 0a2.045 2.045 0 002.361.897l1.436-.443c.283.18.575.343.876.492l.311 1.4v.002A2.024 2.024 0 009.125 28h3.752z" fill="#7879B2" stroke="#fff" stroke-width="2"/><circle cx="11" cy="17" r="4" fill="#fff"/></g><defs><clipPath id="clip0"><path fill="#fff" d="M0 0h36v36H0z"/></clipPath></defs></svg>